<svg width="317" height="265" viewBox="0 0 317 265" fill="none" xmlns="http://www.w3.org/2000/svg">
<path d="M94.3955 0C109.424 0 122.574 2.93528 133.845 8.80566C145.351 14.4412 154.273 23.1295 160.613 34.8701C167.188 46.6108 170.476 61.4041 170.476 79.25V185.038C170.978 203.113 175.93 216.848 185.336 226.242C195.036 236.403 208.759 241.482 226.503 241.482C239.752 241.482 251.345 238.766 261.282 233.331C270.983 228.133 278.553 220.453 283.995 210.292C289.2 200.368 291.803 188.317 291.803 174.14V76.3145H317V262.395H292.867V228.527C286.994 238.414 278.833 246.395 268.38 252.47C255.367 260.267 239.871 264.167 221.89 264.167C206.748 264.167 193.498 261.213 182.142 255.306C170.549 249.635 161.558 240.892 155.17 229.077C148.545 217.263 145.233 202.376 145.233 184.418V76.3145H145.335C144.49 59.4928 139.604 46.6169 130.675 37.6875C121.047 27.5905 107.428 22.542 89.8164 22.542C76.6669 22.542 65.161 25.2428 55.2988 30.6436C45.6715 35.8095 38.1576 43.4411 32.7568 53.5381C27.591 63.4003 25.0078 75.376 25.0078 89.4648V186.678H0V1.76074H23.9512V35.416C29.78 25.5914 37.88 17.6593 48.2549 11.623C61.1696 3.87434 76.5498 5.7772e-06 94.3955 0Z" fill="#202954"/>
<path d="M269.696 193C266.259 193 263.612 192.071 261.755 190.214C259.897 188.356 258.968 185.732 258.968 182.342V148H263.914V182.063C263.914 184.2 264.448 185.848 265.516 187.009C266.631 188.17 268.21 188.751 270.253 188.751C272.436 188.751 274.247 188.124 275.687 186.87L277.428 190.423C276.453 191.305 275.269 191.955 273.876 192.373C272.529 192.791 271.136 193 269.696 193ZM252.42 160.19V156.08H275.06V160.19H252.42Z" fill="#202954"/>
<path d="M229.153 192.652V156.081H233.89V166.042L233.402 164.3C234.424 161.514 236.142 159.401 238.557 157.961C240.972 156.475 243.967 155.732 247.543 155.732V160.539C247.358 160.539 247.172 160.539 246.986 160.539C246.8 160.492 246.614 160.469 246.429 160.469C242.574 160.469 239.556 161.653 237.373 164.022C235.19 166.344 234.099 169.664 234.099 173.983V192.652H229.153Z" fill="#202954"/>
<path d="M210.983 192.652V184.571L210.774 183.248V169.734C210.774 166.622 209.892 164.231 208.127 162.559C206.409 160.887 203.831 160.051 200.395 160.051C198.026 160.051 195.774 160.446 193.638 161.235C191.502 162.025 189.69 163.07 188.204 164.37L185.975 160.678C187.833 159.099 190.062 157.892 192.663 157.056C195.263 156.173 198.003 155.732 200.882 155.732C205.619 155.732 209.265 156.916 211.819 159.285C214.419 161.607 215.72 165.159 215.72 169.943V192.652H210.983ZM198.375 193C195.635 193 193.243 192.559 191.2 191.676C189.203 190.748 187.67 189.494 186.602 187.915C185.534 186.289 185 184.432 185 182.342C185 180.438 185.441 178.72 186.324 177.187C187.252 175.608 188.738 174.355 190.782 173.426C192.872 172.45 195.658 171.963 199.141 171.963H211.749V175.655H199.28C195.751 175.655 193.289 176.282 191.896 177.536C190.55 178.789 189.876 180.345 189.876 182.203C189.876 184.293 190.689 185.964 192.314 187.218C193.94 188.472 196.215 189.099 199.141 189.099C201.927 189.099 204.319 188.472 206.316 187.218C208.359 185.918 209.845 184.06 210.774 181.646L211.889 185.059C210.96 187.474 209.334 189.401 207.012 190.841C204.737 192.28 201.858 193 198.375 193Z" fill="#202954"/>
</svg>
