<svg width="319" height="266" viewBox="0 0 319 266" fill="none" xmlns="http://www.w3.org/2000/svg">
<mask id="path-1-outside-1_1_46" maskUnits="userSpaceOnUse" x="0" y="0" width="319" height="266" fill="black">
<rect fill="white" width="319" height="266"/>
<path d="M95.3955 1C110.424 1 123.574 3.93528 134.845 9.80566C146.351 15.4412 155.273 24.1295 161.613 35.8701C168.188 47.6108 171.476 62.4041 171.476 80.25V186.038C171.978 204.113 176.93 217.848 186.336 227.242C196.036 237.403 209.759 242.482 227.503 242.482C240.752 242.482 252.345 239.766 262.282 234.331C271.983 229.133 279.553 221.453 284.995 211.292C290.2 201.368 292.803 189.317 292.803 175.14V77.3145H318V263.395H293.867V229.527C287.994 239.414 279.833 247.395 269.38 253.47C256.367 261.267 240.871 265.167 222.89 265.167C207.748 265.167 194.498 262.213 183.142 256.306C171.549 250.635 162.558 241.892 156.17 230.077C149.545 218.263 146.233 203.376 146.233 185.418V77.3145H146.335C145.49 60.4928 140.604 47.6169 131.675 38.6875C122.047 28.5905 108.428 23.542 90.8164 23.542C77.6669 23.542 66.161 26.2428 56.2988 31.6436C46.6715 36.8095 39.1576 44.4411 33.7568 54.5381C28.591 64.4003 26.0078 76.376 26.0078 90.4648V187.678H1V2.76074H24.9512V36.416C30.78 26.5914 38.88 18.6593 49.2549 12.623C62.1696 4.87434 77.5498 1.00001 95.3955 1Z"/>
</mask>
<path d="M95.3955 1C110.424 1 123.574 3.93528 134.845 9.80566C146.351 15.4412 155.273 24.1295 161.613 35.8701C168.188 47.6108 171.476 62.4041 171.476 80.25V186.038C171.978 204.113 176.93 217.848 186.336 227.242C196.036 237.403 209.759 242.482 227.503 242.482C240.752 242.482 252.345 239.766 262.282 234.331C271.983 229.133 279.553 221.453 284.995 211.292C290.2 201.368 292.803 189.317 292.803 175.14V77.3145H318V263.395H293.867V229.527C287.994 239.414 279.833 247.395 269.38 253.47C256.367 261.267 240.871 265.167 222.89 265.167C207.748 265.167 194.498 262.213 183.142 256.306C171.549 250.635 162.558 241.892 156.17 230.077C149.545 218.263 146.233 203.376 146.233 185.418V77.3145H146.335C145.49 60.4928 140.604 47.6169 131.675 38.6875C122.047 28.5905 108.428 23.542 90.8164 23.542C77.6669 23.542 66.161 26.2428 56.2988 31.6436C46.6715 36.8095 39.1576 44.4411 33.7568 54.5381C28.591 64.4003 26.0078 76.376 26.0078 90.4648V187.678H1V2.76074H24.9512V36.416C30.78 26.5914 38.88 18.6593 49.2549 12.623C62.1696 4.87434 77.5498 1.00001 95.3955 1Z" fill="white"/>
<path d="M95.3955 1L95.3955 0.5L95.3955 0.5L95.3955 1ZM134.845 9.80566L134.614 10.2493L134.625 10.2547L134.845 9.80566ZM161.613 35.8701L161.173 36.1077L161.177 36.1144L161.613 35.8701ZM171.476 80.25L171.976 80.25V80.25L171.476 80.25ZM171.476 186.038H170.975L170.976 186.052L171.476 186.038ZM186.336 227.242L186.698 226.897L186.689 226.888L186.336 227.242ZM227.503 242.482L227.503 242.982L227.503 242.982L227.503 242.482ZM262.282 234.331L262.046 233.89L262.042 233.892L262.282 234.331ZM284.995 211.292L285.436 211.528L285.438 211.524L284.995 211.292ZM292.803 175.14L293.303 175.14V175.14H292.803ZM292.803 77.3145V76.8145H292.303V77.3145H292.803ZM318 77.3145H318.5V76.8145H318V77.3145ZM318 263.395V263.895H318.5V263.395H318ZM293.867 263.395H293.367V263.895H293.867V263.395ZM293.867 229.527H294.367V227.707L293.437 229.272L293.867 229.527ZM269.38 253.47L269.129 253.037L269.123 253.041L269.38 253.47ZM222.89 265.167L222.89 265.667L222.89 265.667L222.89 265.167ZM183.142 256.306L183.372 255.862L183.361 255.857L183.142 256.306ZM156.17 230.077L156.61 229.839L156.606 229.833L156.17 230.077ZM146.233 77.3145V76.8145H145.733V77.3145H146.233ZM146.335 77.3145V77.8145H146.861L146.834 77.2894L146.335 77.3145ZM131.675 38.6875L131.313 39.0326L131.321 39.0411L131.675 38.6875ZM90.8164 23.542L90.8164 23.042L90.8164 23.042L90.8164 23.542ZM56.2988 31.6436L56.5352 32.0842L56.539 32.0821L56.2988 31.6436ZM33.7568 54.5381L33.3159 54.3023L33.3139 54.3061L33.7568 54.5381ZM26.0078 187.678V188.178H26.5078V187.678H26.0078ZM1 187.678H0.5V188.178H1V187.678ZM1 2.76074V2.26074H0.5V2.76074H1ZM24.9512 2.76074H25.4512V2.26074H24.9512V2.76074ZM24.9512 36.416H24.4512V38.2387L25.3812 36.6711L24.9512 36.416ZM49.2549 12.623L49.5064 13.0553L49.5121 13.0518L49.2549 12.623ZM95.3955 1V1.5C110.358 1.5 123.426 4.42211 134.614 10.2491L134.845 9.80566L135.076 9.36221C123.721 3.44846 110.489 0.5 95.3955 0.5V1ZM134.845 9.80566L134.625 10.2547C146.033 15.8424 154.881 24.4547 161.173 36.1077L161.613 35.8701L162.053 35.6325C155.666 23.8043 146.668 15.04 135.065 9.35663L134.845 9.80566ZM161.613 35.8701L161.177 36.1144C167.699 47.7601 170.976 62.4627 170.976 80.25L171.476 80.25L171.976 80.25C171.976 62.3455 168.678 47.4616 162.05 35.6258L161.613 35.8701ZM171.476 80.25H170.976V186.038H171.476H171.976V80.25H171.476ZM171.476 186.038L170.976 186.052C171.48 204.208 176.457 218.083 185.983 227.596L186.336 227.242L186.689 226.888C177.402 217.613 172.476 204.018 171.975 186.024L171.476 186.038ZM186.336 227.242L185.974 227.587C195.792 237.871 209.66 242.982 227.503 242.982V242.482V241.982C209.857 241.982 196.28 236.934 186.698 226.897L186.336 227.242ZM227.503 242.482L227.503 242.982C240.822 242.982 252.5 240.251 262.522 234.77L262.282 234.331L262.042 233.892C252.191 239.28 240.683 241.982 227.503 241.982L227.503 242.482ZM262.282 234.331L262.518 234.772C272.31 229.525 279.95 221.771 285.436 211.528L284.995 211.292L284.554 211.056C279.157 221.134 271.655 228.741 262.046 233.89L262.282 234.331ZM284.995 211.292L285.438 211.524C290.689 201.512 293.303 189.377 293.303 175.14L292.803 175.14L292.303 175.14C292.303 189.257 289.711 201.224 284.552 211.06L284.995 211.292ZM292.803 175.14H293.303V77.3145H292.803H292.303V175.14H292.803ZM292.803 77.3145V77.8145H318V77.3145V76.8145H292.803V77.3145ZM318 77.3145H317.5V263.395H318H318.5V77.3145H318ZM318 263.395V262.895H293.867V263.395V263.895H318V263.395ZM293.867 263.395H294.367V229.527H293.867H293.367V263.395H293.867ZM293.867 229.527L293.437 229.272C287.61 239.082 279.512 247.004 269.129 253.037L269.38 253.47L269.631 253.902C280.154 247.787 288.378 239.746 294.297 229.783L293.867 229.527ZM269.38 253.47L269.123 253.041C256.201 260.784 240.797 264.667 222.89 264.667L222.89 265.167L222.89 265.667C240.944 265.667 256.533 261.751 269.637 253.899L269.38 253.47ZM222.89 265.167V264.667C207.813 264.667 194.646 261.726 183.372 255.862L183.142 256.306L182.911 256.749C194.351 262.7 207.682 265.667 222.89 265.667V265.167ZM183.142 256.306L183.361 255.857C171.866 250.233 162.95 241.566 156.61 229.839L156.17 230.077L155.73 230.315C162.166 242.217 171.231 251.036 182.922 256.755L183.142 256.306ZM156.17 230.077L156.606 229.833C150.035 218.113 146.733 203.317 146.733 185.418H146.233H145.733C145.733 203.435 149.056 218.412 155.734 230.322L156.17 230.077ZM146.233 185.418H146.733V77.3145H146.233H145.733V185.418H146.233ZM146.233 77.3145V77.8145H146.335V77.3145V76.8145H146.233V77.3145ZM146.335 77.3145L146.834 77.2894C145.986 60.386 141.071 47.3768 132.028 38.3339L131.675 38.6875L131.321 39.0411C140.137 47.857 144.995 60.5996 145.836 77.3395L146.335 77.3145ZM131.675 38.6875L132.037 38.3425C122.292 28.1219 108.526 23.042 90.8164 23.042V23.542V24.042C108.329 24.042 121.803 29.059 131.313 39.0325L131.675 38.6875ZM90.8164 23.542L90.8164 23.042C77.5972 23.042 66.006 25.7576 56.0587 31.205L56.2988 31.6436L56.539 32.0821C66.3159 26.7281 77.7366 24.042 90.8164 24.042L90.8164 23.542ZM56.2988 31.6436L56.0624 31.203C46.3439 36.4178 38.7608 44.1228 33.3159 54.3023L33.7568 54.5381L34.1977 54.7739C39.5543 44.7594 46.9991 37.2011 56.5352 32.0841L56.2988 31.6436ZM33.7568 54.5381L33.3139 54.3061C28.1019 64.2564 25.5078 76.3162 25.5078 90.4648H26.0078H26.5078C26.5078 76.4359 29.08 64.5442 34.1998 54.7701L33.7568 54.5381ZM26.0078 90.4648H25.5078V187.678H26.0078H26.5078V90.4648H26.0078ZM26.0078 187.678V187.178H1V187.678V188.178H26.0078V187.678ZM1 187.678H1.5V2.76074H1H0.5V187.678H1ZM1 2.76074V3.26074H24.9512V2.76074V2.26074H1V2.76074ZM24.9512 2.76074H24.4512V36.416H24.9512H25.4512V2.76074H24.9512ZM24.9512 36.416L25.3812 36.6711C31.1643 26.9235 39.2013 19.0509 49.5063 13.0552L49.2549 12.623L49.0034 12.1909C38.5588 18.2678 30.3956 26.2593 24.5212 36.1609L24.9512 36.416ZM49.2549 12.623L49.5121 13.0518C62.3358 5.3577 77.6235 1.50001 95.3955 1.5L95.3955 1L95.3955 0.5C77.4761 0.500006 62.0034 4.39098 48.9976 12.1943L49.2549 12.623Z" fill="#A7A7A7" mask="url(#path-1-outside-1_1_46)"/>
<path d="M265.165 148.75V156.83H276.31V161.44H265.165V183.063C265.165 185.159 265.688 186.738 266.7 187.839C267.755 188.936 269.261 189.501 271.253 189.501C273.385 189.501 275.135 188.89 276.522 187.682L276.768 187.468L276.911 187.76L278.653 191.312L278.736 191.481L278.596 191.608C277.591 192.518 276.373 193.185 274.948 193.612L274.947 193.611C273.576 194.036 272.159 194.25 270.696 194.25C267.432 194.25 264.838 193.422 262.947 191.738L262.578 191.391C260.661 189.474 259.718 186.778 259.718 183.342V161.44H253.17V156.83H259.718V148.75H265.165Z" fill="white" stroke="#A7A7A7" stroke-width="0.5"/>
<path d="M248.793 156.482V161.789H247.955L247.926 161.781C247.759 161.739 247.593 161.72 247.429 161.72C243.629 161.72 240.683 162.884 238.557 165.191L238.556 165.193C236.43 167.454 235.349 170.705 235.349 174.983V193.902H229.903V156.831H235.141V163.113C236.184 161.287 237.613 159.83 239.43 158.747C241.892 157.232 244.934 156.482 248.543 156.482H248.793Z" fill="white" stroke="#A7A7A7" stroke-width="0.5"/>
<path d="M201.883 156.482C206.659 156.482 210.374 157.677 212.989 160.101H212.988C215.658 162.487 216.97 166.118 216.97 170.943V193.902H211.733V188.741C210.809 190.038 209.613 191.143 208.145 192.054L208.144 192.053C205.818 193.523 202.89 194.25 199.375 194.25C196.609 194.25 194.182 193.805 192.101 192.906L192.094 192.903V192.902C190.063 191.957 188.493 190.676 187.396 189.055L187.394 189.053C186.297 187.383 185.75 185.477 185.75 183.343C185.75 181.398 186.201 179.636 187.106 178.062L187.108 178.06L187.295 177.759C188.262 176.27 189.727 175.085 191.676 174.199L192.085 174.018C194.168 173.144 196.857 172.713 200.141 172.713H211.524V170.734C211.524 167.671 210.657 165.352 208.955 163.74L208.952 163.738C207.298 162.128 204.794 161.302 201.395 161.302C199.201 161.302 197.11 161.643 195.121 162.328L194.725 162.47C192.613 163.25 190.829 164.281 189.369 165.558L189.145 165.755L188.99 165.499L186.761 161.807L186.651 161.625L186.813 161.487C188.698 159.885 190.956 158.664 193.582 157.819L194.076 157.657C196.556 156.873 199.159 156.482 201.883 156.482ZM200.28 176.905C196.765 176.905 194.385 177.533 193.063 178.721C191.77 179.927 191.126 181.415 191.126 183.203C191.126 185.217 191.904 186.815 193.467 188.02L193.769 188.24C195.313 189.304 197.428 189.849 200.141 189.849C202.889 189.849 205.232 189.231 207.183 188.007C209.166 186.744 210.613 184.944 211.524 182.596V176.905H200.28Z" fill="white" stroke="#A7A7A7" stroke-width="0.5"/>
</svg>
