<svg width="317" height="265" viewBox="0 0 317 265" fill="none" xmlns="http://www.w3.org/2000/svg">
<path d="M94.3955 0C109.424 0 122.574 2.93528 133.845 8.80566C145.351 14.4412 154.273 23.1295 160.613 34.8701C167.188 46.6108 170.476 61.4041 170.476 79.25V185.038C170.978 203.113 175.93 216.848 185.336 226.242C195.036 236.402 208.759 241.482 226.503 241.482C239.752 241.482 251.345 238.766 261.282 233.331C270.983 228.133 278.553 220.453 283.995 210.292C289.2 200.368 291.803 188.317 291.803 174.14V76.3145H317V262.395H292.867V228.527C286.994 238.414 278.833 246.395 268.38 252.47C255.367 260.267 239.871 264.167 221.89 264.167C206.748 264.167 193.498 261.213 182.142 255.306C170.549 249.635 161.558 240.892 155.17 229.077C148.545 217.263 145.233 202.376 145.233 184.418V76.3145H145.335C144.49 59.4928 139.604 46.6169 130.675 37.6875C121.047 27.5905 107.428 22.542 89.8164 22.542C76.6669 22.542 65.161 25.2428 55.2988 30.6436C45.6715 35.8095 38.1576 43.4411 32.7568 53.5381C27.591 63.4003 25.0078 75.376 25.0078 89.4648V186.678H0V1.76074H23.9512V35.416C29.78 25.5914 37.88 17.6593 48.2549 11.623C61.1696 3.87434 76.5498 5.7772e-06 94.3955 0Z" fill="white"/>
<path d="M264.915 147V155.08H276.06V161.19H264.915V182.063C264.915 184.033 265.404 185.404 266.245 186.323C267.123 187.234 268.409 187.751 270.254 187.751C272.231 187.751 273.798 187.189 275.03 186.116L276.011 185.261L276.585 186.43L278.326 189.982L278.658 190.659L278.099 191.164C277.005 192.154 275.688 192.871 274.172 193.327L274.172 193.328C272.728 193.776 271.234 194 269.696 194C266.192 194 263.329 193.079 261.247 191.114L261.047 190.921C258.952 188.826 257.968 185.917 257.968 182.342V161.19H251.421V155.08H257.968V147H264.915Z" fill="white" stroke="white" stroke-width="2"/>
<path d="M248.543 154.732V161.539H246.863L246.743 161.509C246.634 161.481 246.53 161.47 246.429 161.47C242.794 161.47 240.065 162.576 238.108 164.699L238.101 164.707C236.147 166.786 235.099 169.827 235.099 173.983V193.652H228.153V155.081H234.891V159.748C235.659 158.851 236.549 158.068 237.562 157.404L238.045 157.102C240.651 155.502 243.836 154.732 247.543 154.732H248.543Z" fill="white" stroke="white" stroke-width="2"/>
<path d="M200.883 154.732C205.772 154.732 209.689 155.954 212.485 158.539L212.751 158.784C215.452 161.356 216.72 165.14 216.72 169.943V193.652H209.983V189.774C209.268 190.483 208.455 191.12 207.546 191.684L207.547 191.685C205.071 193.252 201.992 194 198.375 194C195.53 194 192.998 193.542 190.804 192.595L190.79 192.589L190.778 192.583C188.643 191.59 186.958 190.227 185.773 188.475L185.767 188.464C184.583 186.663 184 184.612 184 182.343C184 180.277 184.481 178.384 185.457 176.688L185.462 176.68L185.666 176.349C186.724 174.719 188.312 173.451 190.358 172.519L190.793 172.327C193.002 171.399 195.802 170.963 199.141 170.963H209.774V169.734C209.774 166.816 208.953 164.719 207.439 163.285L207.43 163.275C205.966 161.851 203.684 161.052 200.395 161.052C198.28 161.052 196.272 161.381 194.364 162.038L193.984 162.174C191.945 162.927 190.245 163.914 188.863 165.123L187.965 165.908L187.349 164.887L185.119 161.195L184.68 160.467L185.327 159.916C187.173 158.347 189.354 157.135 191.853 156.271L192.356 156.103C195.061 155.188 197.905 154.732 200.883 154.732ZM199.28 176.655C195.814 176.655 193.68 177.282 192.573 178.272C191.435 179.334 190.876 180.622 190.876 182.203C190.876 183.989 191.55 185.366 192.925 186.427L193.193 186.622C194.572 187.571 196.519 188.099 199.141 188.099C201.609 188.099 203.697 187.58 205.44 186.578L205.784 186.371C207.586 185.223 208.915 183.596 209.774 181.45V176.655H199.28Z" fill="white" stroke="white" stroke-width="2"/>
</svg>
